<svg xmlns="http://www.w3.org/2000/svg" version="1.1" xmlns:xlink="http://www.w3.org/1999/xlink" xmlns:svgjs="http://svgjs.dev/svgjs" width="1000" height="1000" viewBox="0 0 1000 1000"><rect width="1000" height="1000" fill="#000000"></rect><g transform="matrix(0.7,0,0,0.7,149.57575757575756,402.4230180374879)"><svg viewBox="0 0 396 111" data-background-color="#ffffff" preserveAspectRatio="xMidYMid meet" height="280" width="1000" xmlns="http://www.w3.org/2000/svg" xmlns:xlink="http://www.w3.org/1999/xlink"><g id="tight-bounds" transform="matrix(1,0,0,1,0.2400000000000091,-0.23956633755693701)"><svg viewBox="0 0 395.52 111.4788407876159" height="111.4788407876159" width="395.52"><g><svg viewBox="0 0 650.4204575336315 183.32352" height="111.4788407876159" width="395.52"><g transform="matrix(1,0,0,1,254.90045753363157,31.022866140707606)"><svg viewBox="0 0 395.52 121.27778771858479" height="121.27778771858479" width="395.52"><g><svg viewBox="0 0 395.52 121.27778771858479" height="121.27778771858479" width="395.52"><g><svg viewBox="0 0 395.52 121.27778771858479" height="121.27778771858479" width="395.52"><g transform="matrix(1,0,0,1,0,0)"><svg width="395.52" viewBox="0.3500000238418579 -37.099998474121094 122.94000244140625 37.69999694824219" height="121.27778771858479" data-palette-color="#cd64c4"><path d="M5.9 0.25L6.3-2.4Q8.7-2.6 9.68-3.03 10.65-3.45 10.98-4.53 11.3-5.6 11.3-8.15L11.3-8.15 11.3-29.15Q7.65-29.05 6.3-28.68 4.95-28.3 4.42-27.13 3.9-25.95 3.5-22.75L3.5-22.75 0.35-22.5Q0.85-26.95 1.05-32.1L1.05-32.1 1.55-32.55 6.05-32 21.6-32 26.2-32.55 26.7-32.1Q26.9-26.85 27.35-22.75L27.35-22.75 24.2-22.5Q23.7-25.85 23.2-27.05 22.7-28.25 21.45-28.63 20.2-29 16.8-29.15L16.8-29.15Q16.55-25.9 16.32-18.85 16.1-11.8 16.1-6.1L16.1-6.1Q16.1-4.25 16.75-3.48 17.4-2.7 18.9-2.7L18.9-2.7Q20.25-2.7 21.6-2.85L21.6-2.85 21.8-2.6 21.35 0.2Q16.55 0 13.4 0L13.4 0Q9.9 0 5.9 0.25L5.9 0.25ZM30.95-17.1Q30.95-19.7 29.2-19.7L29.2-19.7Q28.75-19.7 28.37-19.65 28-19.6 27.9-19.55L27.9-19.55 28.15-21.85Q30.4-22.2 32.92-22.73 35.45-23.25 36.2-23.4L36.2-23.4 36.55-22.7Q36.05-21.45 35.65-17.03 35.25-12.6 35.25-8.15L35.25-8.15Q35.25-5.85 36.12-4.75 37-3.65 38.85-3.65L38.85-3.65Q40.15-3.65 41.32-4.28 42.5-4.9 44.15-6.05L44.15-6.05 44.15-17.05Q44.15-18.55 43.62-19.1 43.1-19.65 41.75-19.65L41.75-19.65 40.75-19.6 41-21.9Q43.45-22.2 46.07-22.7 48.7-23.2 49.45-23.35L49.45-23.35 49.8-22.65Q49.3-21.5 48.95-16.57 48.6-11.65 48.6-5.85L48.6-5.85Q48.6-4.85 49.1-4.25 49.6-3.65 50.5-3.65L50.5-3.65Q51.15-3.65 51.75-3.9 52.35-4.15 52.75-4.4 53.15-4.65 53.25-4.75L53.25-4.75 54-3.85Q53.8-3.55 53.02-2.53 52.25-1.5 51.2-0.5 50.15 0.5 49.25 0.6L49.25 0.6Q44.95 0.6 44.5-3.35L44.5-3.35 44.2-3.5Q42-1.7 40.25-0.55 38.5 0.6 37.85 0.6L37.85 0.6Q34.35 0.6 32.52-0.95 30.7-2.5 30.7-5.45L30.7-5.45 30.95-17.1ZM55.05 0.55L55.35-2Q56.6-2.3 57.17-2.85 57.75-3.4 57.87-4.23 58-5.05 58-6.75L58-6.75 58-30.65Q58-32.25 57.62-32.8 57.25-33.35 56.05-33.35L56.05-33.35Q55.35-33.35 54.9-33.3L54.9-33.3 54.7-33.45 54.95-35.6Q59.45-36.15 63.6-37.1L63.6-37.1 63.9-36.3Q63.3-35.1 62.87-25.85 62.45-16.6 62.45-5.05L62.45-5.05Q62.45-3.7 62.82-3.1 63.2-2.5 64.1-2.5L64.1-2.5 65.8-2.6 65.9-2.35 65.45 0.15Q64.8 0.15 64.4 0.1L64.4 0.1Q61.9 0 60.45 0L60.45 0Q58.25 0 55.05 0.55L55.05 0.55ZM85.44 0.6Q81.14 0.6 80.74-3.35L80.74-3.35 80.44-3.45Q78.69-1.7 77.22-0.65 75.74 0.4 74.94 0.4L74.94 0.4Q72.09 0.4 70.22-1.5 68.34-3.4 68.34-6.25L68.34-6.25Q68.34-7.8 69.09-8.9 69.84-10 71.09-10.35L71.09-10.35 80.64-12.8 80.69-14.55Q80.69-16.9 79.54-18.2 78.39-19.5 76.34-19.5L76.34-19.5Q74.99-19.5 73.44-18.85 71.89-18.2 70.39-17.05L70.39-17.05 70.09-17.25 69.34-19.75Q71.69-21.15 74.27-22.28 76.84-23.4 77.99-23.4L77.99-23.4Q81.64-23.4 83.59-21.63 85.54-19.85 85.54-16.8L85.54-16.8Q85.54-16.2 85.14-12.3L85.14-12.3Q84.59-7 84.59-5.85L84.59-5.85Q84.59-4.85 85.09-4.25 85.59-3.65 86.54-3.65L86.54-3.65Q87.24-3.65 88.02-4 88.79-4.35 89.24-4.75L89.24-4.75 89.99-3.8Q89.19-2.4 87.94-1.1 86.69 0.2 85.44 0.6L85.44 0.6ZM76.24-3.6Q77.09-3.6 78.24-4.17 79.39-4.75 80.34-5.6L80.34-5.6 80.54-10.5 74.44-8.75Q73.09-8.3 73.09-6.85L73.09-6.85Q73.09-5.45 73.97-4.53 74.84-3.6 76.24-3.6L76.24-3.6ZM98.79 0.6Q97.09 0.6 95.72 0.33 94.34 0.05 93.54-0.23 92.74-0.5 92.54-0.6L92.54-0.6 92.34-1Q92.49-1.95 92.69-4.17 92.89-6.4 92.94-7.65L92.94-7.65 95.14-7.9Q95.19-4.95 96.29-3.65 97.39-2.35 99.84-2.35L99.84-2.35Q101.49-2.35 102.64-3.1 103.79-3.85 103.79-4.95L103.79-4.95Q103.79-6.1 102.69-7.03 101.59-7.95 98.34-9.6L98.34-9.6Q95.44-11.05 94.12-12.58 92.79-14.1 92.79-16.05L92.79-16.05Q92.79-18.15 94.04-19.83 95.29-21.5 97.52-22.45 99.74-23.4 102.49-23.4L102.49-23.4Q103.79-23.4 104.97-23.2 106.14-23 106.87-22.8 107.59-22.6 107.79-22.55L107.79-22.55 107.94-22.2Q107.84-21.7 107.49-19.85 107.14-18 106.99-15.95L106.99-15.95 104.69-15.75Q104.69-15.9 104.74-16.25 104.79-16.6 104.79-16.95L104.79-16.95Q104.79-18.75 103.87-19.58 102.94-20.4 100.99-20.4L100.99-20.4Q99.44-20.4 98.39-19.68 97.34-18.95 97.34-17.9L97.34-17.9Q97.34-16.8 98.27-15.88 99.19-14.95 101.29-13.85L101.29-13.85Q104.09-12.45 105.64-11.35 107.19-10.25 107.82-9.18 108.44-8.1 108.44-6.7L108.44-6.7Q108.44-4.75 107.14-3.08 105.84-1.4 103.62-0.4 101.39 0.6 98.79 0.6L98.79 0.6ZM112.34 0.6L112.64-1.95Q114.14-2.35 114.79-3.08 115.44-3.8 115.44-5.15L115.44-5.15 115.44-17Q115.44-18.45 114.99-19.1 114.54-19.75 113.49-19.75L113.49-19.75Q113.19-19.75 112.79-19.68 112.39-19.6 112.29-19.55L112.29-19.55 112.49-21.85Q114.94-22.2 117.46-22.73 119.99-23.25 120.74-23.4L120.74-23.4 121.09-22.7Q120.59-21.65 120.26-16.48 119.94-11.3 119.94-5.05L119.94-5.05Q119.94-3.7 120.31-3.13 120.69-2.55 121.59-2.55L121.59-2.55Q122.09-2.55 122.56-2.6 123.04-2.65 123.19-2.65L123.19-2.65 123.29-2.4 122.89 0.15Q122.39 0.1 120.96 0.05 119.54 0 117.94 0L117.94 0Q116.54 0 114.71 0.25 112.89 0.5 112.34 0.6L112.34 0.6ZM117.34-28.55Q115.94-28.55 115.19-29.4 114.44-30.25 114.44-31.55L114.44-31.55Q114.44-33.05 115.39-34.02 116.34-35 117.84-35L117.84-35Q119.19-35 119.96-34.15 120.74-33.3 120.74-32L120.74-32Q120.74-30.5 119.79-29.53 118.84-28.55 117.34-28.55L117.34-28.55Z" opacity="1" transform="matrix(1,0,0,1,0,0)" fill="#ffffff" class="undefined-text-0" data-fill-palette-color="primary" id="text-0"></path></svg></g></svg></g></svg></g></svg></g><g><svg viewBox="0 0 183.32352 183.32352" height="183.32352" width="183.32352"><g><svg viewBox="0 0 183.32352 183.32352" height="183.32352" width="183.32352"><g transform="matrix(1,0,0,1,67.96944597548759,48.451991952337444)"><svg viewBox="0 0 47.38462804902482 86.41953609532511" height="86.41953609532511" width="47.38462804902482"><g><svg xmlns="http://www.w3.org/2000/svg" xmlns:xlink="http://www.w3.org/1999/xlink" version="1.1" x="0" y="0" viewBox="2 5.191001892089844 227.00001525878906 414" enable-background="new 0 0 232.027 424.191" xml:space="preserve" height="86.41953609532511" width="47.38462804902482" class="icon-c-0" data-fill-palette-color="accent" id="c-0"><g fill="#0718c4" data-fill-palette-color="accent"><path d="M185.717 97.191c0.099 0 0.188 0.007 0.283 0.007V52.191c0-25.958-21.043-47-47-47H93c-25.958 0-47 21.042-47 47v45.007c0.099 0 0.188-0.007 0.283-0.007H185.717z" fill="#ffffff" data-fill-palette-color="accent"></path><path d="M46.283 337.191c-0.095 0-0.188-0.008-0.283-0.008v35.008c0 25.957 21.042 47 47 47h46c25.957 0 47-21.043 47-47v-35.008c-0.095 0-0.188 0.008-0.283 0.008H46.283z" fill="#ffffff" data-fill-palette-color="accent"></path><path d="M185.217 104.191H45.783C21.603 104.191 2 123.793 2 147.974v138.434c0 24.181 19.604 43.783 43.783 43.783h139.434c24.185 0 43.783-19.604 43.783-43.783V147.974C229 123.793 209.397 104.191 185.217 104.191zM115.608 301.992c-49.259 0-89.192-39.934-89.192-89.192 0-49.258 39.937-89.192 89.192-89.192S204.8 163.541 204.8 212.8C204.801 262.059 164.867 301.992 115.608 301.992z" fill="#ffffff" data-fill-palette-color="accent"></path><path d="M123 198.193v-47.466c0-4.408-3.847-7.042-7.5-7.042-3.649 0-7.5 2.634-7.5 7.042v47.571c2.276-1.199 4.862-1.886 7.608-1.886C118.27 196.412 120.776 197.063 123 198.193z" fill="#ffffff" data-fill-palette-color="accent"></path><path d="M101.407 220.941l-21.311 28.232c-2.528 3.611-1.267 7.717 1.729 9.812 2.993 2.095 7.28 1.881 9.808-1.73l21.359-28.298C108.036 228.158 103.822 225.137 101.407 220.941z" fill="#ffffff" data-fill-palette-color="accent"></path><circle cx="115.608" cy="212.8" r="11" fill="#ffffff" data-fill-palette-color="accent"></circle></g></svg></g></svg></g><path d="M27.531 75.386L25.744 74.332C26.121 73.148 26.302 72.283 26.286 71.738 26.272 71.186 26.042 70.728 25.595 70.364 25.14 70.003 24.305 69.576 23.092 69.082V69.082L8.063 62.961C7.404 64.717 7.033 65.956 6.949 66.678 6.861 67.391 7.048 67.989 7.51 68.472 7.969 68.945 8.921 69.589 10.369 70.403V70.403L9.632 72.729C7.609 71.625 5.388 70.527 2.968 69.437V69.437L2.79 68.944 4.497 65.889 9.028 54.762 9.975 51.302 10.443 51.083C12.986 52.007 15.279 52.759 17.319 53.337V53.337L16.582 55.663C14.886 55.253 13.704 55.052 13.035 55.059 12.363 55.059 11.819 55.32 11.403 55.844 10.978 56.371 10.399 57.431 9.667 59.024V59.024C11.167 59.775 13.578 60.89 16.897 62.368 20.22 63.84 23.241 65.13 25.962 66.238V66.238C26.839 66.595 27.526 66.697 28.024 66.542 28.523 66.381 28.919 65.944 29.21 65.229V65.229C29.471 64.586 29.697 63.929 29.887 63.257V63.257L30.126 63.186 31.998 64.316C30.967 66.571 30.146 68.45 29.534 69.951V69.951C28.854 71.621 28.187 73.433 27.531 75.386ZM37.836 35.24C37.03 34.167 36.267 33.9 35.546 34.441V34.441C35.359 34.582 35.196 34.72 35.056 34.858 34.916 34.996 34.833 35.09 34.807 35.142V35.142L33.9 33.609C34.719 32.767 35.566 31.848 36.44 30.851 37.323 29.856 37.896 29.21 38.161 28.915V28.915L38.692 29.185C38.875 29.85 39.569 31.158 40.774 33.109 41.974 35.054 43.264 36.945 44.642 38.781V38.781C45.35 39.725 46.058 40.289 46.763 40.473 47.46 40.656 48.189 40.461 48.952 39.889V39.889C49.486 39.488 49.9 38.974 50.193 38.349 50.484 37.733 50.793 36.934 51.118 35.952V35.952L46.014 29.151C45.551 28.534 45.125 28.193 44.735 28.128 44.351 28.06 43.879 28.235 43.319 28.656V28.656L42.728 29.148 41.82 27.616C42.733 26.736 43.654 25.785 44.582 24.764 45.51 23.752 46.105 23.098 46.37 22.802V22.802L46.909 23.067C47.06 23.699 47.823 25.085 49.201 27.222 50.578 29.359 52.162 31.621 53.952 34.007V34.007C54.264 34.422 54.615 34.673 55.005 34.761 55.4 34.855 55.781 34.763 56.149 34.487V34.487C56.419 34.284 56.637 34.04 56.803 33.753 56.974 33.462 57.106 33.205 57.198 32.982 57.286 32.754 57.335 32.603 57.345 32.531V32.531L58.219 32.739C58.229 32.926 58.234 33.348 58.233 34.005 58.231 34.672 58.168 35.372 58.045 36.105 57.921 36.847 57.69 37.377 57.353 37.695V37.695C55.579 39.026 53.99 38.946 52.586 37.453V37.453L52.329 37.5C51.978 38.923 51.619 40.141 51.252 41.155 50.889 42.173 50.576 42.781 50.311 42.98V42.98C48.869 44.062 47.533 44.567 46.302 44.493 45.067 44.415 43.994 43.768 43.083 42.554V42.554ZM76.484 29.789L76.378 27.803C76.984 27.54 77.411 27.246 77.657 26.92 77.903 26.588 78.021 26.206 78.012 25.773 78.004 25.347 77.926 24.702 77.776 23.839V23.839L74.633 5.644C74.493 4.832 74.302 4.302 74.062 4.054 73.822 3.806 73.398 3.734 72.791 3.839V3.839C72.433 3.901 72.141 3.965 71.915 4.03V4.03L71.752 3.94 71.652 2.279C73.892 1.602 76.021 0.843 78.041 0V0L78.376 0.564C78.18 1.223 78.38 3.92 78.974 8.655 79.568 13.39 80.372 18.688 81.384 24.549V24.549C81.502 25.233 81.684 25.711 81.928 25.985 82.172 26.252 82.521 26.347 82.975 26.268V26.268L84.257 25.978 84.365 26.147 84.35 28.114C84.024 28.17 83.756 28.203 83.547 28.213V28.213C82.267 28.382 81.259 28.529 80.524 28.656V28.656C79.406 28.85 78.059 29.227 76.484 29.789ZM115.835 32.978C113.711 32.36 112.834 31.044 113.204 29.031V29.031L113.002 28.891C111.884 29.504 110.886 29.964 110.007 30.269 109.126 30.58 108.486 30.677 108.088 30.561V30.561C106.68 30.152 105.65 29.342 104.995 28.131 104.341 26.921 104.219 25.612 104.628 24.205V24.205C104.851 23.439 105.229 22.836 105.762 22.397 106.287 21.962 106.883 21.747 107.551 21.752V21.752L115.171 21.994 115.586 20.706C115.923 19.548 115.898 18.564 115.512 17.756 115.134 16.944 114.437 16.39 113.422 16.094V16.094C112.756 15.901 111.992 15.854 111.132 15.955 110.272 16.056 109.389 16.282 108.483 16.633V16.633L108.302 16.418 108.283 14.396C109.648 14.044 111.05 13.776 112.488 13.594 113.92 13.409 114.919 13.399 115.486 13.564V13.564C117.292 14.09 118.549 14.932 119.259 16.091 119.969 17.25 120.105 18.583 119.666 20.09V20.09C119.581 20.382 119.158 21.465 118.397 23.338V23.338C117.366 25.881 116.768 27.437 116.603 28.003V28.003C116.458 28.502 116.465 28.932 116.623 29.296 116.785 29.667 117.099 29.921 117.566 30.057V30.057C117.915 30.158 118.308 30.178 118.745 30.116 119.174 30.058 119.529 29.962 119.811 29.828V29.828L120.158 30.689C119.565 31.266 118.866 31.789 118.061 32.257 117.251 32.718 116.509 32.958 115.835 32.978ZM109.914 27.871C110.338 27.994 110.875 27.995 111.525 27.873 112.179 27.76 112.801 27.559 113.392 27.272V27.272L114.599 23.681 109.69 23.661C108.959 23.692 108.489 24.065 108.28 24.781V24.781C108.079 25.472 108.129 26.112 108.431 26.7 108.729 27.279 109.223 27.67 109.914 27.871ZM137.878 47.366C137.249 46.758 136.729 46.157 136.32 45.563 135.911 44.969 135.607 44.476 135.408 44.085 135.213 43.699 135.097 43.451 135.058 43.341V43.341L135.156 43.016C135.554 42.716 136.19 42.189 137.062 41.436 137.925 40.683 138.592 40.082 139.061 39.634V39.634L140.414 40.684C139.378 41.793 138.833 42.786 138.779 43.663 138.72 44.536 139.143 45.409 140.048 46.284V46.284C140.659 46.874 141.312 47.239 142.007 47.379 142.701 47.509 143.245 47.372 143.637 46.966V46.966C144.047 46.542 144.216 45.961 144.144 45.224 144.063 44.486 143.716 43.231 143.103 41.457V41.457C142.554 39.879 142.307 38.572 142.363 37.534 142.418 36.497 142.796 35.616 143.494 34.894V34.894C144.243 34.119 145.147 33.645 146.208 33.471 147.27 33.298 148.384 33.432 149.552 33.876 150.711 34.319 151.801 35.035 152.822 36.022V36.022C153.303 36.486 153.724 36.965 154.085 37.459 154.456 37.953 154.738 38.365 154.932 38.697 155.13 39.033 155.258 39.246 155.314 39.337V39.337L155.209 39.614C154.991 39.765 154.486 40.12 153.693 40.679 152.904 41.233 152.114 41.864 151.323 42.57V42.57L149.942 41.451C149.996 41.395 150.096 41.311 150.241 41.198 150.381 41.091 150.514 40.971 150.641 40.841V40.841C151.285 40.174 151.584 39.52 151.536 38.878 151.489 38.246 151.104 37.581 150.381 36.882V36.882C149.807 36.328 149.196 35.994 148.547 35.881 147.899 35.777 147.388 35.919 147.013 36.306V36.306C146.617 36.717 146.424 37.257 146.435 37.926 146.447 38.605 146.646 39.523 147.033 40.682V40.682C147.567 42.2 147.923 43.442 148.1 44.406 148.282 45.367 148.297 46.158 148.147 46.779 147.988 47.401 147.659 47.971 147.158 48.489V48.489C146.459 49.211 145.57 49.651 144.49 49.807 143.411 49.963 142.28 49.826 141.098 49.396 139.917 48.976 138.844 48.299 137.878 47.366ZM153.065 69.478L155 69.021C155.46 69.675 155.921 70.097 156.384 70.287 156.851 70.468 157.41 70.44 158.062 70.203V70.203L166.662 67.065C167.363 66.809 167.832 66.514 168.068 66.179 168.307 65.85 168.334 65.43 168.147 64.918V64.918C168.093 64.772 168.014 64.611 167.909 64.435 167.801 64.254 167.726 64.143 167.684 64.103V64.103L169.401 63.643C170.002 64.762 170.655 65.888 171.357 67.019 172.052 68.147 172.502 68.88 172.709 69.219V69.219L172.299 69.658C171.699 69.601 170.117 69.95 167.555 70.705 164.995 71.467 162.205 72.399 159.182 73.501V73.501C158.53 73.739 158.097 73.997 157.881 74.276 157.673 74.559 157.65 74.92 157.81 75.359V75.359C157.896 75.596 157.991 75.828 158.094 76.052 158.203 76.275 158.27 76.423 158.297 76.496V76.496L158.15 76.633 156.188 77.017C156.124 76.764 155.978 76.289 155.751 75.592 155.524 74.895 155.27 74.159 154.987 73.385V73.385C154.741 72.709 154.395 71.951 153.951 71.112 153.507 70.273 153.211 69.728 153.065 69.478ZM175.546 65.387C175.3 64.711 175.317 64.115 175.598 63.598 175.875 63.089 176.33 62.72 176.964 62.488V62.488C177.689 62.224 178.369 62.235 179.005 62.52 179.649 62.81 180.104 63.317 180.368 64.042V64.042C180.606 64.694 180.587 65.285 180.31 65.814 180.038 66.334 179.585 66.71 178.951 66.941V66.941C178.226 67.206 177.545 67.195 176.91 66.91 176.265 66.62 175.811 66.112 175.546 65.387ZM9.831 124.819L12.071 124.245C12.721 125.47 13.269 126.293 13.717 126.716 14.163 127.132 14.706 127.306 15.346 127.237 15.993 127.166 16.99 126.843 18.339 126.268V126.268L35.047 119.144C34.169 117.234 33.476 115.964 32.968 115.335 32.466 114.703 31.844 114.379 31.104 114.363 30.361 114.356 29.096 114.606 27.31 115.113V115.113L26.045 112.692C28.516 111.955 31.139 111.055 33.915 109.992V109.992L34.445 110.242 35.533 114.008 40.806 126.376 42.802 129.84 42.615 130.396C39.875 131.691 37.47 132.921 35.4 134.086V134.086L34.135 131.664C35.792 130.64 36.884 129.86 37.41 129.326 37.934 128.785 38.153 128.142 38.068 127.395 37.983 126.649 37.597 125.358 36.913 123.52V123.52C35.132 124.124 32.347 125.164 28.555 126.64 24.769 128.113 21.364 129.494 18.339 130.784V130.784C17.361 131.201 16.74 131.671 16.475 132.192 16.209 132.708 16.246 133.365 16.587 134.165V134.165C16.892 134.881 17.236 135.58 17.619 136.263V136.263L17.487 136.499 15.106 137.091C14.13 134.504 13.285 132.375 12.573 130.704V130.704C11.782 128.849 10.868 126.887 9.831 124.819ZM43.575 150.091C44.453 148.877 44.482 147.974 43.662 147.381V147.381C43.452 147.229 43.251 147.103 43.058 147.004 42.87 146.899 42.742 146.843 42.676 146.835V146.835L44.018 145.345C45.187 145.942 46.449 146.543 47.805 147.148 49.162 147.761 50.041 148.157 50.441 148.334V148.334L50.326 149.007C49.673 149.423 48.505 150.596 46.822 152.524 45.144 154.456 43.553 156.463 42.047 158.544V158.544C41.272 159.616 40.903 160.558 40.94 161.369 40.972 162.177 41.422 162.894 42.289 163.521V163.521C42.893 163.959 43.578 164.23 44.342 164.334 45.098 164.441 46.058 164.503 47.222 164.52V164.52L52.793 156.819C53.302 156.115 53.524 155.547 53.46 155.116 53.404 154.684 53.061 154.24 52.431 153.783V153.783L51.706 153.308 53.043 151.825C54.291 152.512 55.611 153.182 57.003 153.837 58.398 154.486 59.297 154.904 59.698 155.09V155.09L59.589 155.756C58.97 156.124 57.744 157.399 55.911 159.579 54.083 161.763 52.19 164.208 50.233 166.914V166.914C49.895 167.382 49.743 167.841 49.778 168.29 49.804 168.741 50.027 169.119 50.447 169.423V169.423C50.752 169.643 51.088 169.794 51.454 169.875 51.821 169.964 52.138 170.018 52.406 170.035 52.679 170.056 52.856 170.06 52.937 170.047V170.047L53.002 171.054C52.804 171.128 52.354 171.274 51.651 171.494 50.942 171.71 50.172 171.873 49.34 171.984 48.516 172.093 47.877 172.019 47.423 171.762V171.762C45.415 170.31 44.974 168.585 46.098 166.589V166.589L45.959 166.332C44.326 166.432 42.906 166.453 41.698 166.396 40.496 166.343 39.743 166.206 39.438 165.986V165.986C37.803 164.804 36.821 163.545 36.49 162.209 36.164 160.868 36.498 159.509 37.494 158.132V158.132ZM73.627 182.237L74.229 180.097C74.973 180.046 75.533 179.891 75.91 179.629 76.288 179.368 76.549 179.01 76.695 178.554 76.842 178.091 76.993 177.377 77.149 176.41V176.41L80.442 156.01C80.588 155.101 80.581 154.472 80.421 154.125 80.254 153.776 79.831 153.546 79.152 153.437V153.437C78.749 153.372 78.416 153.335 78.155 153.325V153.325L78.014 153.164 78.521 151.364C81.133 151.464 83.663 151.435 86.113 151.279V151.279L86.253 152.001C85.803 152.631 85.031 155.558 83.939 160.782 82.846 166.006 81.769 171.903 80.709 178.472V178.472C80.585 179.241 80.604 179.815 80.766 180.196 80.923 180.57 81.257 180.798 81.769 180.88V180.88L83.233 181.028 83.286 181.253 82.557 183.324C82.186 183.264 81.89 183.203 81.67 183.141V183.141C80.258 182.854 79.139 182.644 78.313 182.51V182.51C77.058 182.308 75.496 182.217 73.627 182.237ZM122.304 178.129C119.926 178.827 118.305 178.116 117.44 175.998V175.998L117.173 175.985C116.487 177.241 115.821 178.278 115.176 179.096 114.532 179.92 113.989 180.397 113.547 180.526V180.526C111.973 180.989 110.512 180.846 109.164 180.099 107.822 179.351 106.92 178.189 106.458 176.615V176.615C106.206 175.756 106.196 174.961 106.428 174.231 106.666 173.499 107.102 172.935 107.736 172.539V172.539L115.064 168.178 114.677 166.72C114.295 165.42 113.682 164.505 112.837 163.975 111.99 163.44 110.998 163.339 109.859 163.673V163.673C109.112 163.892 108.365 164.307 107.619 164.919 106.866 165.532 106.168 166.277 105.527 167.155V167.155L105.226 167.061 103.992 165.172C105.064 164.012 106.222 162.912 107.464 161.871 108.707 160.831 109.646 160.217 110.28 160.031V160.031C112.297 159.439 113.991 159.476 115.362 160.142 116.727 160.809 117.657 161.986 118.152 163.673V163.673C118.249 164.002 118.505 165.279 118.921 167.502V167.502C119.477 170.523 119.847 172.351 120.034 172.986V172.986C120.196 173.54 120.463 173.941 120.833 174.191 121.212 174.445 121.663 174.495 122.186 174.341V174.341C122.571 174.228 122.951 174.012 123.324 173.693 123.695 173.368 123.973 173.06 124.158 172.769V172.769L125.013 173.37C124.793 174.279 124.443 175.193 123.962 176.111 123.483 177.036 122.93 177.709 122.304 178.129ZM113.655 176.885C114.122 176.748 114.626 176.428 115.168 175.924 115.715 175.419 116.181 174.853 116.565 174.227V174.227L115.542 170.117 110.907 173.048C110.233 173.516 110.014 174.152 110.249 174.955V174.955C110.478 175.733 110.906 176.306 111.535 176.676 112.171 177.044 112.877 177.114 113.655 176.885ZM151.625 159.39C150.919 160.068 150.227 160.626 149.549 161.062 148.866 161.493 148.305 161.813 147.865 162.019 147.425 162.226 147.143 162.349 147.018 162.388V162.388L146.649 162.257C146.337 161.801 145.776 161.072 144.965 160.07 144.16 159.063 143.519 158.289 143.043 157.748V157.748L144.263 156.279C145.459 157.486 146.547 158.14 147.527 158.242 148.502 158.339 149.499 157.898 150.518 156.918V156.918C151.201 156.262 151.635 155.548 151.82 154.777 151.996 154.005 151.863 153.39 151.423 152.932V152.932C150.964 152.455 150.322 152.245 149.495 152.302 148.664 152.354 147.244 152.689 145.237 153.305V153.305C143.455 153.857 141.983 154.08 140.82 153.974 139.661 153.874 138.693 153.419 137.916 152.61V152.61C137.075 151.735 136.58 150.7 136.429 149.505 136.278 148.309 136.477 147.07 137.025 145.787 137.569 144.5 138.412 143.308 139.553 142.211V142.211C140.095 141.69 140.65 141.237 141.217 140.854 141.789 140.466 142.265 140.171 142.645 139.967 143.025 139.764 143.266 139.631 143.368 139.569V139.569L143.676 139.692C143.836 139.943 144.212 140.521 144.804 141.427 145.392 142.338 146.066 143.25 146.828 144.164V144.164L145.512 145.659C145.453 145.598 145.364 145.486 145.243 145.323 145.127 145.156 145 145 144.86 144.855V144.855C144.141 144.107 143.421 143.746 142.7 143.773 141.989 143.8 141.229 144.203 140.42 144.98V144.98C139.774 145.601 139.38 146.272 139.238 146.994 139.091 147.711 139.226 148.287 139.644 148.722V148.722C140.084 149.18 140.681 149.417 141.433 149.432 142.185 149.446 143.218 149.263 144.533 148.88V148.88C146.254 148.35 147.656 148.002 148.737 147.835 149.823 147.673 150.71 147.693 151.399 147.895 152.087 148.087 152.713 148.476 153.275 149.06V149.06C154.052 149.869 154.505 150.883 154.632 152.101 154.764 153.314 154.565 154.572 154.034 155.873 153.509 157.179 152.706 158.351 151.625 159.39ZM171.368 130.895L169.404 129.871C169.491 128.982 169.407 128.288 169.152 127.789 168.889 127.294 168.393 126.909 167.665 126.634V126.634L158.084 123.008C157.301 122.712 156.691 122.62 156.253 122.732 155.81 122.841 155.481 123.178 155.268 123.742V123.742C155.208 123.9 155.158 124.096 155.118 124.33 155.072 124.563 155.055 124.709 155.067 124.769V124.769L153.26 123.908C153.572 122.515 153.843 121.084 154.072 119.618 154.309 118.147 154.461 117.196 154.528 116.763V116.763L155.211 116.689C155.672 117.176 157.265 118.035 159.988 119.266 162.712 120.498 165.757 121.751 169.124 123.025V123.025C169.852 123.3 170.41 123.394 170.797 123.304 171.182 123.221 171.467 122.937 171.65 122.452V122.452C171.751 122.185 171.839 121.916 171.913 121.646 171.979 121.38 172.027 121.208 172.057 121.129V121.129L172.297 121.126 174.233 122.223C174.106 122.486 173.881 122.998 173.559 123.757 173.246 124.512 172.926 125.32 172.6 126.181V126.181C172.313 126.94 172.051 127.835 171.812 128.869 171.574 129.902 171.426 130.577 171.368 130.895ZM149.33 117.938C149.045 118.69 148.595 119.182 147.981 119.414 147.374 119.642 146.719 119.623 146.015 119.357V119.357C145.209 119.052 144.638 118.544 144.303 117.835 143.974 117.128 143.963 116.368 144.271 115.555V115.555C144.546 114.827 144.991 114.34 145.604 114.094 146.221 113.856 146.879 113.869 147.576 114.133V114.133C148.389 114.44 148.96 114.948 149.289 115.655 149.624 116.364 149.637 117.125 149.33 117.938ZM3.979 96.119C3.979 90.073 8.88 85.171 14.927 85.171 20.974 85.171 25.875 90.073 25.875 96.119 25.875 102.166 20.974 107.068 14.927 107.068 8.88 107.068 3.979 102.166 3.979 96.119ZM156.731 96.119C156.731 90.073 161.633 85.171 167.679 85.171 173.726 85.171 178.628 90.073 178.628 96.119 178.628 102.166 173.726 107.068 167.679 107.068 161.633 107.068 156.731 102.166 156.731 96.119Z" fill="#ffffff" data-fill-palette-color="accent"></path></svg></g></svg></g></svg></g><defs></defs></svg><rect width="395.52" height="111.4788407876159" fill="none" stroke="none" visibility="hidden"></rect></g></svg></g></svg>